<?xml version="1.0" encoding="UTF-8" standalone="no"?>
<svg
   xmlns:dc="http://purl.org/dc/elements/1.1/"
   xmlns:cc="http://creativecommons.org/ns#"
   xmlns:rdf="http://www.w3.org/1999/02/22-rdf-syntax-ns#"
   xmlns:svg="http://www.w3.org/2000/svg"
   xmlns="http://www.w3.org/2000/svg"
   xmlns:sodipodi="http://sodipodi.sourceforge.net/DTD/sodipodi-0.dtd"
   xmlns:inkscape="http://www.inkscape.org/namespaces/inkscape"
   width="2492.8911"
   height="407.6546"
   viewBox="0 0 659.57742 107.85861"
   version="1.1"
   id="svg8"
   inkscape:version="1.0.1 (1.0.1+r75)"
   sodipodi:docname="logo-text.svg"
   inkscape:export-filename="/home/masterg/Documents/Personal Project/website-tailwind/public/logo-1.png"
   inkscape:export-xdpi="96"
   inkscape:export-ydpi="96">
  <defs
     id="defs2">
    <rect
       x="-26.757067"
       y="141.32292"
       width="1.0213095"
       height="0.1872825"
       id="rect839" />
    <rect
       x="-26.809471"
       y="141.41853"
       width="4.7418694"
       height="1.8682323"
       id="rect925" />
    <rect
       x="-27.498125"
       y="140.10886"
       width="139.48256"
       height="55.155132"
       id="rect871" />
  </defs>
  <sodipodi:namedview
     id="base"
     pagecolor="#ffffff"
     bordercolor="#666666"
     borderopacity="1.0"
     inkscape:pageopacity="0.0"
     inkscape:pageshadow="2"
     inkscape:zoom="0.29782949"
     inkscape:cx="840.42206"
     inkscape:cy="-216.00816"
     inkscape:document-units="mm"
     inkscape:current-layer="text837"
     inkscape:document-rotation="0"
     showgrid="false"
     inkscape:window-width="1920"
     inkscape:window-height="1020"
     inkscape:window-x="0"
     inkscape:window-y="30"
     inkscape:window-maximized="1"
     units="px"
     inkscape:snap-bbox="true"
     inkscape:object-paths="false"
     inkscape:snap-intersection-paths="true"
     inkscape:snap-page="false"
     inkscape:snap-grids="true"
     showborder="false"
     inkscape:snap-smooth-nodes="true"
     inkscape:snap-global="true"
     inkscape:snap-object-midpoints="true">
    <inkscape:grid
       type="xygrid"
       id="grid893"
       spacingx="2.6458333"
       spacingy="2.6458333"
       originx="171.98153"
       originy="132.30457"
       dotted="true" />
  </sodipodi:namedview>
  <metadata
     id="metadata5">
    <rdf:RDF>
      <cc:Work
         rdf:about="">
        <dc:format>image/svg+xml</dc:format>
        <dc:type
           rdf:resource="http://purl.org/dc/dcmitype/StillImage" />
        <dc:title />
      </cc:Work>
    </rdf:RDF>
  </metadata>
  <g
     inkscape:label="Layer 1"
     inkscape:groupmode="layer"
     id="layer1"
     transform="translate(146.31687,81.954408)">
    <g
       aria-label="AG"
       transform="matrix(21.264553,0,0,21.264553,631.96781,-2964.7119)"
       id="text869"
       style="font-size:3.88056px;line-height:1.25;font-family:sans-serif;letter-spacing:0px;word-spacing:0px;white-space:pre;shape-inside:url(#rect871);stroke-width:0.0470266">
      <g
         aria-label="AG"
         transform="matrix(25.34721,0,0,25.34721,653.43344,-3446.4953)"
         id="text923"
         style="font-size:0.182489px;line-height:1.25;font-family:sans-serif;letter-spacing:0px;word-spacing:0px;white-space:pre;shape-inside:url(#rect925);stroke-width:0.0018553">
        <path
           id="path839"
           style="fill:#bba559;fill-opacity:1;fill-rule:evenodd;stroke:none;stroke-width:4.99999;stroke-linecap:round"
           d="m -72.945312,-127.75 a 197.50002,197.50002 0 0 0 -165.455078,90.447266 l 28.70312,57.40625 A 147.5,147.5 0 0 1 -69.919922,-80.324219 147.5,147.5 0 0 1 65.892578,9.65625 H 115.70703 A 197.50002,197.50002 0 0 0 -72.429688,-127.75 a 197.50002,197.50002 0 0 0 -0.515624,0 z M 77.373047,59.566406 a 147.5,147.5 0 0 1 0.002,0.06055 H -119.92773 V 109.74219 H 71.287109 A 147.5,147.5 0 0 1 -69.919922,214.6543 147.5,147.5 0 0 1 -116.13867,207.22266 l 29.769529,59.53711 a 197.50002,197.50002 0 0 0 13.939453,0.49414 A 197.50002,197.50002 0 0 0 125.07227,69.650391 197.50002,197.50002 0 0 0 124.80859,59.566406 Z"
           transform="matrix(4.9088082e-4,0,0,4.9088082e-4,-26.968027,141.38868)" />
        <path
           id="path862"
           style="fill:#abacae;fill-opacity:1;stroke:none;stroke-width:0.00049088px;stroke-linecap:butt;stroke-linejoin:miter;stroke-opacity:1"
           d="m -27.125073,141.31976 v 1e-5 l -0.09816,0.19634 -2.1e-5,2e-5 h 1.1e-5 l -5e-6,1e-5 h 0.01315 l 0.134096,4e-5 -0.0098,-0.0246 -0.100603,-4e-5 0.06133,-0.12267 v -10e-6 l 0.07363,0.14726 0.02454,1e-5 z" />
        <g
           aria-label="ABHIGYAN GHOSH"
           transform="translate(-0.08835858,0.04800317)"
           id="text837"
           style="font-size:0.0942491px;line-height:1.25;font-family:sans-serif;letter-spacing:0px;word-spacing:0px;white-space:pre;shape-inside:url(#rect839);fill:#abacae;fill-opacity:1">
          <path
             d="m -26.757153,141.40974 h 0.01423 l 0.0077,-0.018 h 0.02479 l 0.0074,0.018 h 0.01423 l -0.02922,-0.0696 h -0.01018 z m 0.02667,-0.0303 0.0074,-0.0211 0.0074,0.0211 z"
             style="font-style:normal;font-variant:normal;font-weight:600;font-stretch:normal;font-family:'URW Gothic L';-inkscape-font-specification:'URW Gothic L Semi-Bold';fill:#abacae;fill-opacity:1"
             id="path845" />
          <path
             d="m -26.681637,141.40974 h 0.01857 c 0.0077,0 0.01338,-0.001 0.01763,-0.004 0.0057,-0.003 0.009,-0.01 0.009,-0.0169 0,-0.004 -0.0012,-0.009 -0.0034,-0.0114 -0.002,-0.003 -0.004,-0.004 -0.0085,-0.006 0.0056,-0.003 0.0077,-0.007 0.0077,-0.0131 0,-0.006 -0.0029,-0.012 -0.0079,-0.0152 -0.0041,-0.003 -0.0085,-0.003 -0.01885,-0.003 h -0.01433 z m 0.01291,-0.0123 v -0.0178 h 0.0061 c 0.009,0 0.01319,0.003 0.01319,0.009 0,0.006 -0.0039,0.009 -0.01291,0.009 z m 0,-0.0305 v -0.0142 h 0.0053 c 0.0067,0 0.01,0.002 0.01,0.007 0,0.005 -0.0033,0.007 -0.01112,0.007 z"
             style="font-style:normal;font-variant:normal;font-weight:600;font-stretch:normal;font-family:'URW Gothic L';-inkscape-font-specification:'URW Gothic L Semi-Bold';fill:#abacae;fill-opacity:1"
             id="path847" />
          <path
             d="m -26.626965,141.40974 h 0.01291 v -0.0292 h 0.02488 v 0.0292 h 0.01291 v -0.0696 h -0.01291 v 0.0281 h -0.02488 v -0.0281 h -0.01291 z"
             style="font-style:normal;font-variant:normal;font-weight:600;font-stretch:normal;font-family:'URW Gothic L';-inkscape-font-specification:'URW Gothic L Semi-Bold';fill:#abacae;fill-opacity:1"
             id="path849" />
          <path
             d="m -26.562905,141.40974 h 0.01291 v -0.0696 h -0.01291 z"
             style="font-style:normal;font-variant:normal;font-weight:600;font-stretch:normal;font-family:'URW Gothic L';-inkscape-font-specification:'URW Gothic L Semi-Bold';fill:#abacae;fill-opacity:1"
             id="path851" />
          <path
             d="m -26.511417,141.38627 h 0.02884 c -0.0038,0.008 -0.01131,0.0123 -0.02045,0.0123 -0.01367,0 -0.02413,-0.0103 -0.02413,-0.0236 0,-0.006 0.0025,-0.0126 0.0065,-0.0168 0.0041,-0.004 0.01018,-0.007 0.01687,-0.007 0.0081,0 0.0148,0.003 0.01913,0.009 h 0.01517 c -0.0045,-0.0125 -0.01885,-0.0217 -0.03402,-0.0217 -0.02036,0 -0.03666,0.0159 -0.03666,0.0359 0,0.0204 0.01649,0.0362 0.03789,0.0362 0.01046,0 0.01951,-0.004 0.02639,-0.0108 0.0064,-0.007 0.01,-0.0154 0.01,-0.0243 v -0.002 h -0.04552 z"
             style="font-style:normal;font-variant:normal;font-weight:600;font-stretch:normal;font-family:'URW Gothic L';-inkscape-font-specification:'URW Gothic L Semi-Bold';fill:#abacae;fill-opacity:1"
             id="path853" />
          <path
             d="m -26.440651,141.40974 h 0.01291 v -0.0257 l 0.0229,-0.0439 h -0.01395 l -0.01536,0.032 -0.01546,-0.032 h -0.01395 l 0.0229,0.0439 z"
             style="font-style:normal;font-variant:normal;font-weight:600;font-stretch:normal;font-family:'URW Gothic L';-inkscape-font-specification:'URW Gothic L Semi-Bold';fill:#abacae;fill-opacity:1"
             id="path855" />
          <path
             d="m -26.404823,141.40974 h 0.01423 l 0.0077,-0.018 h 0.02479 l 0.0074,0.018 h 0.01423 l -0.02922,-0.0696 h -0.01018 z m 0.02667,-0.0303 0.0074,-0.0211 0.0074,0.0211 z"
             style="font-style:normal;font-variant:normal;font-weight:600;font-stretch:normal;font-family:'URW Gothic L';-inkscape-font-specification:'URW Gothic L Semi-Bold';fill:#abacae;fill-opacity:1"
             id="path857" />
          <path
             d="m -26.329307,141.40974 h 0.01291 v -0.0506 l 0.02912,0.0506 h 0.01442 v -0.0696 h -0.01291 v 0.0507 l -0.02884,-0.0507 h -0.0147 z"
             style="font-style:normal;font-variant:normal;font-weight:600;font-stretch:normal;font-family:'URW Gothic L';-inkscape-font-specification:'URW Gothic L Semi-Bold';fill:#abacae;fill-opacity:1"
             id="path859" />
          <path
             d="m -26.208053,141.38627 h 0.02884 c -0.0038,0.008 -0.01131,0.0123 -0.02045,0.0123 -0.01367,0 -0.02413,-0.0103 -0.02413,-0.0236 0,-0.006 0.0025,-0.0126 0.0065,-0.0168 0.0041,-0.004 0.01018,-0.007 0.01687,-0.007 0.0081,0 0.0148,0.003 0.01913,0.009 h 0.01517 c -0.0045,-0.0125 -0.01885,-0.0217 -0.03402,-0.0217 -0.02036,0 -0.03666,0.0159 -0.03666,0.0359 0,0.0204 0.01649,0.0362 0.03789,0.0362 0.01046,0 0.01951,-0.004 0.02639,-0.0108 0.0064,-0.007 0.01,-0.0154 0.01,-0.0243 v -0.002 h -0.04552 z"
             style="font-style:normal;font-variant:normal;font-weight:600;font-stretch:normal;font-family:'URW Gothic L';-inkscape-font-specification:'URW Gothic L Semi-Bold';fill:#bba559;fill-opacity:1"
             id="path861" />
          <path
             d="m -26.154063,141.40974 h 0.01291 v -0.0292 h 0.02488 v 0.0292 h 0.01291 v -0.0696 h -0.01291 v 0.0281 h -0.02488 v -0.0281 h -0.01291 z"
             style="font-style:normal;font-variant:normal;font-weight:600;font-stretch:normal;font-family:'URW Gothic L';-inkscape-font-specification:'URW Gothic L Semi-Bold';fill:#abacae;fill-opacity:1"
             id="path863" />
          <path
             d="m -26.056827,141.33887 c -0.02074,0 -0.03676,0.0157 -0.03676,0.0361 0,0.0201 0.01621,0.036 0.03666,0.036 0.02026,0 0.03591,-0.0157 0.03591,-0.0361 0,-0.0199 -0.01593,-0.036 -0.03581,-0.036 z m -1.89e-4,0.0124 c 0.01291,0 0.023,0.0104 0.023,0.0237 0,0.0134 -0.0098,0.0235 -0.023,0.0235 -0.01319,0 -0.02356,-0.0104 -0.02356,-0.0236 0,-0.0135 0.01018,-0.0236 0.02356,-0.0236 z"
             style="font-style:normal;font-variant:normal;font-weight:600;font-stretch:normal;font-family:'URW Gothic L';-inkscape-font-specification:'URW Gothic L Semi-Bold';fill:#abacae;fill-opacity:1"
             id="path865" />
          <path
             d="m -26.015938,141.38986 c 4.71e-4,0.005 0.0017,0.009 0.0045,0.0126 0.0041,0.005 0.01103,0.008 0.01838,0.008 0.01254,0 0.02224,-0.01 0.02224,-0.0223 0,-0.006 -0.0022,-0.0107 -0.0062,-0.0145 -0.0027,-0.003 -0.005,-0.004 -0.01178,-0.006 -0.0066,-0.002 -0.0068,-0.003 -0.0077,-0.003 -0.0025,-0.002 -0.0039,-0.004 -0.0039,-0.006 0,-0.004 0.0029,-0.007 0.0072,-0.007 0.0043,0 0.007,0.003 0.0074,0.007 h 0.01338 c -2.83e-4,-0.005 -0.0015,-0.009 -0.0043,-0.0123 -0.0038,-0.005 -0.0098,-0.007 -0.0163,-0.007 -0.01121,0 -0.02026,0.009 -0.02026,0.0198 0,0.009 0.0052,0.0155 0.01451,0.0189 0.0093,0.003 0.0099,0.004 0.01206,0.005 0.0021,0.002 0.0032,0.004 0.0032,0.007 0,0.005 -0.0039,0.008 -0.0094,0.008 -0.0057,0 -0.0089,-0.003 -0.0094,-0.009 z"
             style="font-style:normal;font-variant:normal;font-weight:600;font-stretch:normal;font-family:'URW Gothic L';-inkscape-font-specification:'URW Gothic L Semi-Bold';fill:#abacae;fill-opacity:1"
             id="path867" />
          <path
             d="m -25.961883,141.40974 h 0.01291 v -0.0292 h 0.02488 v 0.0292 h 0.01291 v -0.0696 h -0.01291 v 0.0281 h -0.02488 v -0.0281 h -0.01291 z"
             style="font-style:normal;font-variant:normal;font-weight:600;font-stretch:normal;font-family:'URW Gothic L';-inkscape-font-specification:'URW Gothic L Semi-Bold';fill:#abacae;fill-opacity:1"
             id="path869" />
        </g>
      </g>
    </g>
  </g>
</svg>
