<?xml version="1.0" encoding="UTF-8" standalone="no"?>
<svg
   xmlns:dc="http://purl.org/dc/elements/1.1/"
   xmlns:cc="http://creativecommons.org/ns#"
   xmlns:rdf="http://www.w3.org/1999/02/22-rdf-syntax-ns#"
   xmlns:svg="http://www.w3.org/2000/svg"
   xmlns="http://www.w3.org/2000/svg"
   xmlns:sodipodi="http://sodipodi.sourceforge.net/DTD/sodipodi-0.dtd"
   xmlns:inkscape="http://www.inkscape.org/namespaces/inkscape"
   width="696.49701"
   height="400.76938"
   viewBox="0 0 184.2815 106.03689"
   version="1.1"
   id="svg8"
   inkscape:version="1.0.1 (1.0.1+r75)"
   sodipodi:docname="logo.svg"
   inkscape:export-filename="/home/masterg/Documents/Personal Project/website-tailwind/public/logo-1.png"
   inkscape:export-xdpi="96"
   inkscape:export-ydpi="96">
  <defs
     id="defs2">
    <rect
       x="-26.757067"
       y="141.32292"
       width="1.0213095"
       height="0.1872825"
       id="rect839" />
    <rect
       x="-26.809471"
       y="141.41853"
       width="4.7418694"
       height="1.8682323"
       id="rect925" />
    <rect
       x="-27.498125"
       y="140.10886"
       width="139.48256"
       height="55.155132"
       id="rect871" />
  </defs>
  <sodipodi:namedview
     id="base"
     pagecolor="#ffffff"
     bordercolor="#666666"
     borderopacity="1.0"
     inkscape:pageopacity="0.0"
     inkscape:pageshadow="2"
     inkscape:zoom="0.29782949"
     inkscape:cx="-1143.0612"
     inkscape:cy="-539.19103"
     inkscape:document-units="mm"
     inkscape:current-layer="text923"
     inkscape:document-rotation="0"
     showgrid="false"
     inkscape:window-width="1920"
     inkscape:window-height="1020"
     inkscape:window-x="0"
     inkscape:window-y="30"
     inkscape:window-maximized="1"
     units="px"
     inkscape:snap-bbox="true"
     inkscape:object-paths="false"
     inkscape:snap-intersection-paths="true"
     inkscape:snap-page="false"
     inkscape:snap-grids="true"
     showborder="false"
     inkscape:snap-smooth-nodes="true"
     inkscape:snap-global="true">
    <inkscape:grid
       type="xygrid"
       id="grid893"
       spacingx="2.6458333"
       spacingy="2.6458333"
       originx="-354.4343"
       originy="-131.25421"
       dotted="true" />
  </sodipodi:namedview>
  <metadata
     id="metadata5">
    <rdf:RDF>
      <cc:Work
         rdf:about="">
        <dc:format>image/svg+xml</dc:format>
        <dc:type
           rdf:resource="http://purl.org/dc/dcmitype/StillImage" />
        <dc:title />
      </cc:Work>
    </rdf:RDF>
  </metadata>
  <g
     inkscape:label="Layer 1"
     inkscape:groupmode="layer"
     id="layer1"
     transform="translate(-380.09895,-181.60439)">
    <g
       aria-label="AG"
       transform="matrix(21.264553,0,0,21.264553,631.96781,-2964.7119)"
       id="text869"
       style="font-size:3.88056px;line-height:1.25;font-family:sans-serif;letter-spacing:0px;word-spacing:0px;white-space:pre;shape-inside:url(#rect871);stroke-width:0.0470266">
      <g
         aria-label="AG"
         transform="matrix(25.34721,0,0,25.34721,653.43344,-3446.4953)"
         id="text923"
         style="font-size:0.182489px;line-height:1.25;font-family:sans-serif;letter-spacing:0px;word-spacing:0px;white-space:pre;shape-inside:url(#rect925);stroke-width:0.0018553">
        <path
           id="path897-3"
           style="font-size:0.182489px;line-height:1.25;font-family:sans-serif;letter-spacing:0px;word-spacing:0px;white-space:pre;shape-inside:url(#rect925);opacity:1;fill:#bba559;fill-opacity:1;fill-rule:evenodd;stroke-width:0.000491651;stroke-linecap:round"
           d="m -26.002925,141.80874 a 0.09813301,0.09813301 0 0 0 -0.07897,0.04 l 0.01384,0.0239 a 0.07359975,0.07359975 0 0 1 0.06504,-0.0392 0.07359975,0.07359975 0 0 1 0.06387,0.0371 h 0.02737 a 0.09813301,0.09813301 0 0 0 -0.09101,-0.0615 0.09813301,0.09813301 0 0 0 -1.31e-4,0 z m 1.31e-4,0.0862 v 0.0245 h 0.0723 a 0.07359975,0.07359975 0 0 1 -0.07252,0.0611 0.07359975,0.07359975 0 0 1 -0.0028,-6e-5 l 0.0139,0.0241 a 0.09813301,0.09813301 0 0 0 0.08645,-0.0852 h 7.65e-4 v -0.0121 a 0.09813301,0.09813301 0 0 0 0,-1.3e-4 v -0.0122 h -7.65e-4 -0.025 z" />
        <path
           id="path899-6"
           style="font-size:0.182489px;line-height:1.25;font-family:sans-serif;letter-spacing:0px;word-spacing:0px;white-space:pre;shape-inside:url(#rect925);opacity:1;fill:#abacae;fill-opacity:1;fill-rule:evenodd;stroke-width:0.000491651;stroke-linecap:round"
           inkscape:transform-center-x="0.00014843948"
           inkscape:transform-center-y="-17.641008"
           d="m -26.133272,141.80887 -2.9e-5,2.5e-4 -0.003,0.005 -0.09615,0.16654 h -5e-6 l -0.01414,0.0245 0.02821,3.1e-4 1.78e-4,-3.1e-4 h 0.141511 l -0.01401,-0.0243 h -0.11341 l 0.07082,-0.12278 0.01187,0.0206 0.07312,0.12647 h 6.7e-5 0.02829 4e-6 l -0.01414,-0.0245 h -9e-6 l -0.08504,-0.14729 h 2e-6 z" />
      </g>
    </g>
  </g>
</svg>
