<?xml version="1.0" encoding="UTF-8" standalone="no"?>
<svg
   xmlns:dc="http://purl.org/dc/elements/1.1/"
   xmlns:cc="http://creativecommons.org/ns#"
   xmlns:rdf="http://www.w3.org/1999/02/22-rdf-syntax-ns#"
   xmlns:svg="http://www.w3.org/2000/svg"
   xmlns="http://www.w3.org/2000/svg"
   xmlns:sodipodi="http://sodipodi.sourceforge.net/DTD/sodipodi-0.dtd"
   xmlns:inkscape="http://www.inkscape.org/namespaces/inkscape"
   width="645.00909"
   height="407.6546"
   viewBox="0 0 170.65865 107.85861"
   version="1.1"
   id="svg8"
   inkscape:version="1.0.1 (1.0.1+r75)"
   sodipodi:docname="logo.svg"
   inkscape:export-filename="/home/masterg/Documents/Personal Project/website-tailwind/public/logo-1.png"
   inkscape:export-xdpi="96"
   inkscape:export-ydpi="96">
  <defs
     id="defs2">
    <rect
       x="-26.757067"
       y="141.32292"
       width="1.0213095"
       height="0.1872825"
       id="rect839" />
    <rect
       x="-26.809471"
       y="141.41853"
       width="4.7418694"
       height="1.8682323"
       id="rect925" />
    <rect
       x="-27.498125"
       y="140.10886"
       width="139.48256"
       height="55.155132"
       id="rect871" />
  </defs>
  <sodipodi:namedview
     id="base"
     pagecolor="#ffffff"
     bordercolor="#666666"
     borderopacity="1.0"
     inkscape:pageopacity="0.0"
     inkscape:pageshadow="2"
     inkscape:zoom="0.29782949"
     inkscape:cx="840.42207"
     inkscape:cy="-224.40222"
     inkscape:document-units="mm"
     inkscape:current-layer="text923"
     inkscape:document-rotation="0"
     showgrid="false"
     inkscape:window-width="1920"
     inkscape:window-height="1020"
     inkscape:window-x="0"
     inkscape:window-y="30"
     inkscape:window-maximized="1"
     units="px"
     inkscape:snap-bbox="true"
     inkscape:object-paths="false"
     inkscape:snap-intersection-paths="true"
     inkscape:snap-page="false"
     inkscape:snap-grids="true"
     showborder="false"
     inkscape:snap-smooth-nodes="true"
     inkscape:snap-global="true">
    <inkscape:grid
       type="xygrid"
       id="grid893"
       spacingx="2.6458333"
       spacingy="2.6458333"
       originx="171.98152"
       originy="132.30457"
       dotted="true" />
  </sodipodi:namedview>
  <metadata
     id="metadata5">
    <rdf:RDF>
      <cc:Work
         rdf:about="">
        <dc:format>image/svg+xml</dc:format>
        <dc:type
           rdf:resource="http://purl.org/dc/dcmitype/StillImage" />
        <dc:title />
      </cc:Work>
    </rdf:RDF>
  </metadata>
  <g
     inkscape:label="Layer 1"
     inkscape:groupmode="layer"
     id="layer1"
     transform="translate(146.31687,81.954408)">
    <g
       aria-label="AG"
       transform="matrix(21.264553,0,0,21.264553,631.96781,-2964.7119)"
       id="text869"
       style="font-size:3.88056px;line-height:1.25;font-family:sans-serif;letter-spacing:0px;word-spacing:0px;white-space:pre;shape-inside:url(#rect871);stroke-width:0.0470266">
      <g
         aria-label="AG"
         transform="matrix(25.34721,0,0,25.34721,653.43344,-3446.4953)"
         id="text923"
         style="font-size:0.182489px;line-height:1.25;font-family:sans-serif;letter-spacing:0px;word-spacing:0px;white-space:pre;shape-inside:url(#rect925);stroke-width:0.0018553">
        <path
           id="path839"
           style="fill:#bba559;fill-opacity:1;fill-rule:evenodd;stroke:none;stroke-width:4.99999;stroke-linecap:round"
           d="m -72.945312,-127.75 a 197.50002,197.50002 0 0 0 -165.455078,90.447266 l 28.70312,57.40625 A 147.5,147.5 0 0 1 -69.919922,-80.324219 147.5,147.5 0 0 1 65.892578,9.65625 H 115.70703 A 197.50002,197.50002 0 0 0 -72.429688,-127.75 a 197.50002,197.50002 0 0 0 -0.515624,0 z M 77.373047,59.566406 a 147.5,147.5 0 0 1 0.002,0.06055 H -119.92773 V 109.74219 H 71.287109 A 147.5,147.5 0 0 1 -69.919922,214.6543 147.5,147.5 0 0 1 -116.13867,207.22266 l 29.769529,59.53711 a 197.50002,197.50002 0 0 0 13.939453,0.49414 A 197.50002,197.50002 0 0 0 125.07227,69.650391 197.50002,197.50002 0 0 0 124.80859,59.566406 Z"
           transform="matrix(4.9088082e-4,0,0,4.9088082e-4,-26.968027,141.38868)" />
        <path
           id="path862"
           style="fill:#abacae;fill-opacity:1;stroke:none;stroke-width:0.00049088px;stroke-linecap:butt;stroke-linejoin:miter;stroke-opacity:1"
           d="m -27.125073,141.31976 v 1e-5 l -0.09816,0.19634 -2.1e-5,2e-5 h 1.1e-5 l -5e-6,1e-5 h 0.01315 l 0.134096,4e-5 -0.0098,-0.0246 -0.100603,-4e-5 0.06133,-0.12267 v -10e-6 l 0.07363,0.14726 0.02454,1e-5 z" />
      </g>
    </g>
  </g>
</svg>
